<svg width="108" height="30" viewBox="0 0 108 30" fill="none" xmlns="http://www.w3.org/2000/svg">
<g clip-path="url(#clip0_280_607)">
<path d="M37.8796 8.91138C38.6056 7.58829 39.6118 6.58214 40.8206 5.79345C42.0774 4.97158 43.4705 4.49615 44.9705 4.33399C46.57 4.16077 48.1032 4.43718 49.5626 5.06372C51.0073 5.68657 52.2162 6.6448 53.1781 7.90155C54.4938 9.619 55.0725 11.5686 55.0577 13.7136C55.0503 14.8377 54.8034 15.9212 54.4017 16.9642C53.9115 18.2283 53.1302 19.2971 52.1462 20.2259C51.6228 20.7197 51.0553 21.1473 50.4324 21.4974C48.339 22.791 45.9693 22.6878 45.8145 22.6915C44.5098 22.6989 43.2604 22.4151 42.0663 21.8991C40.8464 21.3721 39.8145 20.576 38.9447 19.5699C37.113 17.4507 36.4017 14.9851 36.7444 12.2246C36.8919 11.0342 37.253 9.89541 37.8796 8.91138ZM43.301 17.9261C45.5086 19.3082 48.715 18.6706 50.2334 16.1939C51.7444 13.7283 50.9263 10.5846 48.5454 9.1362C46.0135 7.59197 42.9066 8.48755 41.4693 10.85C39.9619 13.3229 40.8354 16.5883 43.301 17.9298V17.9261Z" fill="white"/>
<path d="M0 22.3122V5.03091H4.54423V6.4572C5.87101 5.28521 7.49631 4.69922 9.42015 4.69922C10.7469 4.69922 11.9226 4.99406 12.9509 5.58005C13.9791 6.16605 14.7789 6.97317 15.3538 8.00143C15.9287 9.02969 16.2162 10.2201 16.2162 11.5653V22.3122H11.7052V12.2619C11.7052 11.1341 11.3771 10.2459 10.7248 9.58988C10.0725 8.93755 9.19165 8.60954 8.08599 8.60954C7.31204 8.60954 6.62653 8.76064 6.02948 9.05548C5.43243 9.35401 4.93489 9.78153 4.53685 10.3307V22.3049H0V22.3122Z" fill="white"/>
<path d="M25.5405 22.6438C24.2137 22.6438 23.038 22.3489 22.0097 21.7666C20.9815 21.1806 20.1817 20.3625 19.6068 19.3121C19.0319 18.2617 18.7444 17.0713 18.7444 15.7482V5.03076H23.2554V15.0811C23.2554 16.2089 23.5798 17.1008 24.2358 17.7531C24.8881 18.4055 25.7653 18.7335 26.8746 18.7335C27.6264 18.7335 28.3046 18.5787 28.9127 18.2691C29.5208 17.9595 30.0257 17.5394 30.4237 17.0086V5.03076H34.968V22.3121H30.4237V20.919C29.097 22.0688 27.4717 22.6438 25.5478 22.6438H25.5405Z" fill="white"/>
<path d="M85.8759 23.0527C84.1511 23.0527 82.5847 22.6509 81.1806 21.8438C79.7764 21.0367 78.6634 19.9642 77.8489 18.6264C77.0307 17.2885 76.6216 15.7812 76.6216 14.0969C76.6216 12.4126 77.0122 10.931 77.8009 9.5674C78.586 8.20745 79.6511 7.13129 81 6.33522C82.3489 5.53915 83.8415 5.14111 85.4778 5.14111C87.1142 5.14111 88.6105 5.54652 89.9041 6.35364C91.1978 7.16077 92.215 8.25905 92.9557 9.65586C93.6965 11.049 94.0651 12.6411 94.0651 14.4323V15.6264H81.2616C81.4607 16.3119 81.7923 16.931 82.2567 17.4839C82.7211 18.0367 83.285 18.4642 83.9484 18.7627C84.6118 19.0613 85.3304 19.2087 86.1044 19.2087C86.8783 19.2087 87.5638 19.0907 88.2272 18.8586C88.8906 18.6264 89.4545 18.291 89.9189 17.845L92.9041 20.5649C91.8427 21.4274 90.7518 22.0576 89.6351 22.4556C88.5184 22.8536 87.2616 23.0527 85.8722 23.0527H85.8759ZM81.199 12.3721H89.624C89.4471 11.6866 89.1523 11.0821 88.7469 10.5625C88.3378 10.0428 87.8439 9.64111 87.269 9.34996C86.6941 9.06249 86.0749 8.91875 85.4115 8.91875C84.7039 8.91875 84.0626 9.0588 83.4877 9.33153C82.9127 9.60794 82.4299 10.006 82.043 10.5256C81.656 11.0453 81.3722 11.6608 81.199 12.3684V12.3721Z" fill="white"/>
<path d="M103.854 22.9865C101.952 22.9865 100.507 22.5516 99.5233 21.6781C98.5393 20.8047 98.0491 19.5369 98.0491 17.8784V9.22113H94.5V5.4398H98.0491V1.02826L102.56 0V5.4398H107.536V9.22113H102.56V16.9165C102.56 17.7125 102.744 18.2838 103.109 18.6228C103.474 18.9656 104.086 19.1351 104.952 19.1351C105.416 19.1351 105.829 19.1093 106.198 19.0541C106.563 18.9988 106.964 18.9029 107.407 18.774V22.4889C106.942 22.6437 106.367 22.7654 105.682 22.8538C104.996 22.9423 104.388 22.9865 103.857 22.9865H103.854Z" fill="white"/>
<path d="M74.8563 12.1805C75.2027 14.941 74.4914 17.4066 72.656 19.5257C71.7862 20.5319 70.7543 21.3279 69.5344 21.855C68.3403 22.3709 67.0909 22.6547 65.7862 22.6473C65.6315 22.6473 63.2654 22.7468 61.1683 21.4532C60.5455 21.0994 59.9779 20.6719 59.4546 20.1817C58.4705 19.253 57.6892 18.1842 57.199 16.9201C56.7936 15.8771 56.5504 14.7972 56.543 13.6695C56.5283 11.5245 57.1069 9.57486 58.4226 7.85741C59.3882 6.59697 60.5934 5.64243 62.0381 5.01958C63.4975 4.38935 65.0307 4.11294 66.6302 4.28985C68.1302 4.45201 69.5233 4.92744 70.7801 5.7493C71.9853 6.538 72.9951 7.54414 73.7211 8.86724C74.3477 9.85127 74.7088 10.9901 74.8563 12.1805ZM70.1278 10.8021C68.6904 8.43972 65.5835 7.54414 63.0516 9.08837C60.6708 10.5405 59.8526 13.6805 61.3636 16.1461C62.8821 18.6228 66.0885 19.2604 68.2961 17.8783C70.7617 16.5405 71.6351 13.2714 70.1278 10.7984V10.8021Z" fill="white"/>
<path d="M73.7212 30H70.0357C70.0357 28.6806 68.9595 27.6044 67.6401 27.6044H63.844C62.5246 27.6044 61.4484 28.6806 61.4484 30H57.7629C57.7629 26.6462 60.4902 23.9189 63.844 23.9189H67.6401C70.9939 23.9189 73.7212 26.6462 73.7212 30Z" fill="white"/>
<path d="M54.2691 30H50.5836C50.5836 28.6806 49.5075 27.6044 48.1881 27.6044H43.5259C42.2065 27.6044 41.1303 28.6806 41.1303 30H37.4448C37.4448 26.6462 40.1721 23.9189 43.5259 23.9189H48.1881C51.5419 23.9189 54.2691 26.6462 54.2691 30Z" fill="white"/>
<path d="M55.021 4.96436H51.4829V13.5037H55.021V4.96436Z" fill="white"/>
<path d="M74.9409 4.95703H71.4028V13.9865H74.9409V4.95703Z" fill="white"/>
</g>
<defs>
<clipPath id="clip0_280_607">
<rect width="107.536" height="30" fill="white"/>
</clipPath>
</defs>
</svg>
